<?xml version="1.0" encoding="UTF-8"?><svg id="a" xmlns="http://www.w3.org/2000/svg" viewBox="0 0 32 32"><defs><style>.b{fill:currentColor;}</style></defs><path class="b" d="M19.47,20.08h-6.97l-2.11,5.09c1.54,.93,3.31,1.7,5.35,2.31,.03,0,.1,.02,.24,.02h.02s.02,0,.02,0c.15,0,.21,0,.24-.02,2.03-.62,3.8-1.38,5.34-2.31l-2.13-5.09Z"/><polygon class="b" points="13.38 17.97 18.6 17.97 15.99 11.71 13.38 17.97"/><path class="b" d="M32,5.96c0-.77-.46-1.2-1.34-1.16-3.56,.17-6.69-.9-9.69-2.32-1.28-.61-2.54-1.28-3.7-2.04C16.81,.15,16.41,0,16,0c-.41,0-.81,.15-1.28,.45-1.16,.76-2.41,1.43-3.7,2.04-3,1.42-6.13,2.49-9.69,2.32C.46,4.76,0,5.19,0,5.96c.01,2.15,0,4.31,0,6.46,0,0,0,0,0,0,0,1.92,0,3.83,0,5.75,0,1.85,.64,3.54,1.82,5.09,3.25,4.28,7.97,6.98,13.57,8.68,.18,.05,.38,.07,.6,.06,.21,0,.42,0,.6-.06,5.6-1.7,10.32-4.4,13.57-8.68,1.18-1.55,1.81-3.24,1.82-5.09,0-1.92,0-3.83,0-5.75,0,0,0,0,0,0,0-2.15,0-4.31,0-6.46Zm-2.38,7.66h0v.97c0,1.08,0,2.16,0,3.24,0,1.56-.54,3.04-1.57,4.41-2.54,3.35-6.26,5.73-11.36,7.27-.17,.05-.36,.08-.58,.08-.03,0-.06,0-.09,0-.26,0-.49-.02-.68-.08-5.1-1.55-8.81-3.92-11.36-7.27-1.04-1.37-1.57-2.85-1.57-4.41,0-1.08,0-2.16,0-3.24v-.99s0-.46,0-.46v-1.49c0-1.26,0-2.52,0-3.77,0-.58,.26-.92,.48-1.09,.21-.17,.6-.36,1.22-.33,2.96,.14,5.5-.84,7.59-1.83,1.1-.52,2.09-1.06,2.94-1.62,.49-.32,.93-.47,1.38-.47,.01,0,.02,0,.03,0,.44,0,.88,.15,1.37,.47,.85,.56,1.84,1.1,2.94,1.62,2.09,.99,4.62,1.97,7.59,1.83,.62-.03,1,.16,1.22,.33,.22,.18,.49,.51,.48,1.09,0,1.26,0,2.52,0,3.77v1.97Z"/><path class="b" d="M26.91,8.18c-2.98,.14-5.56-.87-7.47-1.78-1.05-.49-1.99-1.01-2.81-1.55-.34-.22-.51-.24-.62-.24-.12,0-.3,.02-.63,.24-.82,.53-1.76,1.05-2.81,1.55-1.91,.9-4.49,1.92-7.47,1.78-.11,0-.25,0-.33,.06-.07,.06-.12,.19-.12,.36,0,1.15,0,2.29,0,3.44v.94s0,.41,0,.41v1.32c0,.98,0,1.96,0,2.95,0,1.25,.43,2.44,1.27,3.54,.58,.77,1.24,1.48,1.98,2.13l6.24-13.84c.27-.6,.95-.99,1.71-.99h.28c.76,0,1.44,.39,1.71,.99l6.25,13.85c.73-.65,1.39-1.36,1.98-2.13,.84-1.1,1.26-2.29,1.27-3.54,0-.98,0-1.96,0-2.95v-1.76s0,0,0,0v-.92c0-1.15,0-2.29,0-3.44h0c0-.17-.04-.3-.12-.36-.08-.06-.22-.07-.33-.06Z"/></svg>