<?xml version="1.0" encoding="UTF-8" standalone="no"?>
<!-- Created with Inkscape (http://www.inkscape.org/) -->

<svg
   version="1.1"
   id="svg340"
   xml:space="preserve"
   width="316.35867"
   height="318.09601"
   viewBox="0 0 316.35867 318.09601"
   xmlns="http://www.w3.org/2000/svg"
   xmlns:svg="http://www.w3.org/2000/svg"><defs
     id="defs344"><clipPath
       clipPathUnits="userSpaceOnUse"
       id="clipPath356"><path
         d="M 0,238.572 H 237.269 V 0 H 0 Z"
         id="path354" /></clipPath></defs><g
     id="g346"
     transform="matrix(1.3333333,0,0,-1.3333333,0,318.096)"><g
       id="g350"><g
         id="g352"
         clip-path="url(#clipPath356)"><g
           id="g358"
           transform="translate(201.9081,208.9412)"><path
             d="m 0,0 c 0.45,-0.104 0.162,-0.046 0,-0.012 z m -167.032,0.831 c 37.487,7.19 79.811,9.118 120.034,5.759 8.437,-0.704 16.436,-1.581 23.949,-2.643 6.429,-0.9 12.719,-1.939 18.848,-3.116 V -50.504 H 6.221 V 5.09 9.36 l -4.19,0.843 c -0.115,0.023 -0.08,0.011 0,-0.012 0.208,-0.046 0.751,-0.173 0.093,-0.034 L 2.043,10.18 H 2.031 c -7.756,1.592 -15.65,2.943 -23.66,4.074 -8.38,1.178 -16.574,2.089 -24.515,2.759 -42.508,3.543 -87.533,1.269 -127.132,-6.833 l -4.167,-0.854 V 5.09 -50.504 h 10.411 z"
             style="fill:currentcolor;fill-opacity:1;fill-rule:nonzero;stroke:none"
             id="path360" /></g><g
           id="g362"
           transform="translate(145.3998,39.3465)"><path
             d="m 0,0 c -5.251,-3.797 -10.595,-7.213 -15.847,-10.214 -4.501,-2.563 -8.956,-4.825 -13.25,-6.775 -24.642,11.126 -55.297,33.471 -71.086,62.66 -3.105,5.725 -5.632,11.738 -7.409,17.971 -0.2,0.698 -0.388,1.401 -0.568,2.106 h -10.71 c 0.374,-1.666 0.791,-3.32 1.259,-4.957 1.997,-6.96 4.802,-13.654 8.264,-20.048 17.486,-32.306 51.592,-56.717 78.184,-68.201 l 2.055,-0.889 2.066,0.889 0.104,0.046 c 5.136,2.228 10.606,4.963 16.216,8.161 5.54,3.162 11.183,6.786 16.781,10.826 24.562,17.724 47.69,43.449 54.597,74.173 H 49.937 C 43.058,38.849 22.162,16.005 0,0"
             style="fill:currentcolor;fill-opacity:1;fill-rule:nonzero;stroke:none"
             id="path364" /></g><g
           id="g366"
           transform="translate(187.5502,158.4373)"><path
             d="m 0,0 v 39.955 1.316 l -1.194,0.234 c 0.041,-0.011 -0.054,0.011 -0.098,0.019 -6.164,1.258 -12.466,2.343 -18.872,3.244 -6.521,0.912 -13.065,1.639 -19.574,2.181 -33.979,2.84 -69.92,1.027 -101.487,-5.425 l -1.281,-0.265 V 39.955 0 h 3.208 v 38.65 c 30.909,6.175 66.031,7.872 99.294,5.102 6.66,-0.554 13.146,-1.281 19.402,-2.158 5.933,-0.831 11.738,-1.812 17.394,-2.944 l 0,-38.65 z"
             style="fill:currentcolor;fill-opacity:1;fill-rule:nonzero;stroke:none"
             id="path368" /></g><g
           id="g370"
           transform="translate(115.6678,38.2386)"><path
             d="M 0,0 0.624,-0.277 1.258,0 1.362,0.046 c 4.075,1.766 8.391,3.924 12.8,6.44 4.374,2.505 8.841,5.356 13.261,8.541 17.589,12.705 34.236,30.592 41.129,51.829 H 65.174 C 58.333,46.779 42.39,29.782 25.554,17.624 21.249,14.508 16.874,11.715 12.581,9.268 8.495,6.937 4.479,4.905 0.635,3.22 c -20.383,8.945 -46.19,27.527 -59.417,51.961 -2.035,3.753 -3.756,7.653 -5.129,11.675 h -3.362 c 1.477,-4.553 3.378,-8.968 5.675,-13.198 C -47.852,28.266 -20.971,9.06 0,0"
             style="fill:currentcolor;fill-opacity:1;fill-rule:nonzero;stroke:none"
             id="path372" /></g><g
           id="g374"
           transform="translate(186.2806,199.9617)"><path
             d="M 0,0 H -0.023 L 0.076,-0.02 C 0.063,-0.016 0.042,-0.011 0,0"
             style="fill:currentcolor;fill-opacity:1;fill-rule:nonzero;stroke:none"
             id="path376" /></g><g
           id="g378"
           transform="translate(35.619,113.2479)"><path
             d="M 0,0 C 0.654,0.098 1.283,0.283 1.88,0.574 2.781,1.013 3.562,1.609 4.219,2.346 4.877,3.09 5.407,3.944 5.793,4.908 6.18,5.88 6.373,6.891 6.373,7.949 V 21.327 H -0.743 -9.56 v -6.764 h 8.493 V 9.007 c 0,-0.635 -0.201,-1.175 -0.601,-1.638 -0.401,-0.454 -0.895,-0.69 -1.474,-0.69 h -7.936 -4.083 c -0.58,0 -1.066,0.228 -1.474,0.667 -0.401,0.438 -0.601,0.979 -0.601,1.614 v 18.927 c 0,0.634 0.2,1.175 0.601,1.614 0.408,0.439 0.894,0.658 1.474,0.658 h 4.007 8.062 c 0.579,0 1.073,-0.219 1.474,-0.658 0.4,-0.439 0.6,-0.98 0.6,-1.614 v -1.85 h 0.275 7.116 v 2.853 c 0,1.097 -0.208,2.131 -0.608,3.119 -0.401,0.988 -0.945,1.842 -1.639,2.571 -0.693,0.721 -1.48,1.293 -2.368,1.716 -0.801,0.382 -1.636,0.567 -2.501,0.604 -0.093,0.004 -0.181,0.031 -0.275,0.031 h -10.136 -6.082 c -1.03,0 -1.996,-0.22 -2.897,-0.666 -0.902,-0.439 -1.681,-1.027 -2.34,-1.772 -0.399,-0.446 -0.731,-0.955 -1.03,-1.493 -0.194,-0.351 -0.384,-0.704 -0.537,-1.093 -0.386,-0.988 -0.579,-2.014 -0.579,-3.072 V 7.949 c 0,-1.129 0.2,-2.171 0.601,-3.143 0.145,-0.351 0.331,-0.667 0.515,-0.985 0.325,-0.563 0.687,-1.093 1.13,-1.554 0.687,-0.721 1.474,-1.293 2.361,-1.716 0.887,-0.424 1.81,-0.635 2.776,-0.635 h 6.733 9.485 C -0.67,-0.084 -0.333,-0.05 0,0"
             style="fill:currentcolor;fill-opacity:1;fill-rule:nonzero;stroke:none"
             id="path380" /></g><g
           id="g382"
           transform="translate(174.3221,113.1639)"><path
             d="M 0,0 V 28.66 H -6.761 V 8.409 C -6.761,7.806 -6.947,7.312 -7.319,6.928 -7.684,6.536 -8.127,6.34 -8.642,6.34 h -8.113 c -0.544,0 -0.995,0.196 -1.352,0.588 -0.351,0.384 -0.529,0.878 -0.529,1.481 V 28.66 h -6.761 V 7.241 c 0,-1.018 0.179,-1.967 0.536,-2.829 0.351,-0.862 0.838,-1.63 1.445,-2.296 0.616,-0.674 1.324,-1.191 2.125,-1.559 C -20.489,0.18 -19.652,0 -18.779,0 h 7.29 l 4.728,4.601 0,-4.601 z"
             style="fill:currentcolor;fill-opacity:1;fill-rule:nonzero;stroke:none"
             id="path384" /></g><g
           id="g386"
           transform="translate(197.18,135.4759)"><path
             d="m 0,0 v 6.348 h -8.063 v 6.294 h -1.567 -3.208 -1.986 V 6.348 h -4.535 V 0 h 4.535 v -15.071 c 0,-1.018 0.179,-1.974 0.537,-2.852 0.193,-0.488 0.435,-0.931 0.708,-1.348 0.224,-0.34 0.464,-0.664 0.737,-0.957 0.608,-0.642 1.309,-1.145 2.098,-1.512 0.01,-0.005 0.017,-0.011 0.027,-0.015 0.801,-0.377 1.638,-0.557 2.511,-0.557 h 7.984 0.172 v 1.345 4.995 h -6.132 c -0.543,0 -0.994,0.196 -1.352,0.588 -0.35,0.384 -0.529,0.878 -0.529,1.481 V 0 Z"
             style="fill:currentcolor;fill-opacity:1;fill-rule:nonzero;stroke:none"
             id="path388" /></g><g
           id="g390"
           transform="translate(225.7391,137.4354)"><path
             d="m 0,0 c -0.357,0.878 -0.837,1.646 -1.452,2.296 -0.609,0.651 -1.317,1.168 -2.125,1.537 -0.801,0.368 -1.638,0.556 -2.504,0.556 h -0.15 -7.383 L -17.61,0.72 -18.343,0.047 v 14.6 h -6.761 v -38.918 h 6.761 v 20.25 c 0,0.596 0.186,1.09 0.551,1.482 0.055,0.057 0.124,0.081 0.182,0.129 0.335,0.279 0.71,0.451 1.149,0.451 h 8.348 c 0.551,0 1.002,-0.196 1.352,-0.58 0.358,-0.392 0.53,-0.886 0.53,-1.482 v -20.25 h 6.76 V -2.86 C 0.529,-1.834 0.351,-0.886 0,0"
             style="fill:currentcolor;fill-opacity:1;fill-rule:nonzero;stroke:none"
             id="path392" /></g><g
           id="g394"
           transform="translate(43.5013,150.1785)"><path
             d="M 0,0 1.542,-5.234 4.751,-16.12 10.91,-37.015 h 7.769 l 6.325,25.8 6.324,-25.8 H 46.81 v 13.99 c 0,1.183 0.214,2.296 0.636,3.315 0.429,1.026 1.002,1.92 1.739,2.68 0.73,0.76 1.56,1.363 2.489,1.81 0.938,0.447 1.918,0.674 2.934,0.674 h 11.611 c 0.515,0 0.944,0.189 1.302,0.557 0.357,0.376 0.537,0.854 0.537,1.449 v 2.344 c 0,0.635 -0.18,1.136 -0.537,1.512 -0.358,0.369 -0.787,0.557 -1.302,0.557 h -7.741 c -0.544,0 -0.987,-0.188 -1.324,-0.557 -0.336,-0.376 -0.508,-0.877 -0.508,-1.512 v -1.278 H 46.81 v 4.013 c 0,1.191 0.214,2.296 0.636,3.323 0.429,1.027 1.002,1.912 1.739,2.68 0.551,0.572 1.159,1.058 1.824,1.458 L 42.238,0 35.191,-27.289 28.48,0 H 21.534 L 14.823,-27.289 7.776,0 H 4.751 1.542 Z"
             style="fill:currentcolor;fill-opacity:1;fill-rule:nonzero;stroke:none"
             id="path396" /></g><g
           id="g398"
           transform="translate(128.7645,141.6126)"><path
             d="M 0,0 H 0.05 L 5.123,-13.699 H -5.115 Z m -28.187,-15.416 c -0.358,-0.407 -0.53,-0.909 -0.53,-1.504 v -3.402 H -7.526 7.541 l 3.083,-8.127 h 7.333 L 3.67,8.566 h -15.217 c 0.694,-0.416 1.31,-0.933 1.853,-1.544 0.701,-0.784 1.252,-1.693 1.66,-2.735 0.408,-1.042 0.608,-2.116 0.608,-3.237 v -7.312 c 0,-1.191 -0.215,-2.304 -0.636,-3.346 -0.423,-1.043 -0.995,-1.944 -1.703,-2.704 -0.716,-0.768 -1.539,-1.372 -2.476,-1.818 -0.93,-0.447 -1.91,-0.666 -2.925,-0.666 h -11.619 c -0.58,0 -1.045,-0.204 -1.402,-0.62"
             style="fill:currentcolor;fill-opacity:1;fill-rule:nonzero;stroke:none"
             id="path400" /></g><g
           id="g402"
           transform="translate(116.2914,176.0501)"><path
             d="M 0,0 7.479,-5.436 4.628,3.359 12.096,8.784 H 2.862 L 0,17.567 -2.851,8.784 h -9.233 l 7.467,-5.425 -2.85,-8.795 z"
             style="fill:currentcolor;fill-opacity:1;fill-rule:nonzero;stroke:none"
             id="path404" /></g><g
           id="g406"
           transform="translate(143.2645,182.4906)"><path
             d="M 0,0 -2.101,6.463 -4.201,0 H -11 l 5.495,-3.994 -2.101,-6.463 5.505,3.994 5.494,-3.994 L 1.292,-3.994 6.787,0 Z"
             style="fill:currentcolor;fill-opacity:1;fill-rule:nonzero;stroke:none"
             id="path408" /></g><g
           id="g410"
           transform="translate(163.8202,180.8402)"><path
             d="M 0,0 -1.639,5.067 -3.289,0 h -5.333 l 4.317,-3.128 -1.651,-5.067 4.317,3.14 4.305,-3.14 -1.65,5.067 L 5.333,0 Z"
             style="fill:currentcolor;fill-opacity:1;fill-rule:nonzero;stroke:none"
             id="path412" /></g><g
           id="g414"
           transform="translate(93.5311,182.4906)"><path
             d="M 0,0 -2.101,6.463 -4.201,0 h -6.787 l 5.494,-3.994 -2.101,-6.463 5.494,3.994 5.494,-3.994 L 1.304,-3.994 6.798,0 Z"
             style="fill:currentcolor;fill-opacity:1;fill-rule:nonzero;stroke:none"
             id="path416" /></g><g
           id="g418"
           transform="translate(72.0634,180.8402)"><path
             d="M 0,0 -1.651,5.067 -3.29,0 h -5.332 l 4.317,-3.128 -1.651,-5.067 4.305,3.14 4.317,-3.14 -1.65,5.067 L 5.321,0 Z"
             style="fill:currentcolor;fill-opacity:1;fill-rule:nonzero;stroke:none"
             id="path420" /></g><g
           id="g422"
           transform="translate(115.9247,55.5448)"><path
             d="M 0,0 C 9.652,17.203 24.19,32.355 42.056,46.133 23.883,37.538 9.615,26.265 -1.964,13.164 -7.355,15.803 -13.224,18.259 -19.475,20.555 -12.402,13.839 -5.722,7.024 0,0"
             style="fill:currentcolor;fill-opacity:1;fill-rule:nonzero;stroke:none"
             id="path424" /></g></g></g></g></svg>
