<?xml version="1.0" encoding="UTF-8"?><svg id="a" xmlns="http://www.w3.org/2000/svg" viewBox="0 0 32 32"><defs><style>.b{fill:currentColor;}</style></defs><path class="b" d="M18.91,20.08h-5.84l-1.77,5.09c1.29,.93,2.78,1.7,4.48,2.31,.02,0,.08,.02,.2,.02h.02s.02,0,.02,0c.12,0,.18,0,.2-.02,1.7-.62,3.19-1.38,4.48-2.31l-1.79-5.09Z"/><polygon class="b" points="13.8 17.97 18.18 17.97 15.99 11.71 13.8 17.97"/><path class="b" d="M29.41,5.96c0-.77-.39-1.2-1.12-1.16-2.98,.17-5.6-.9-8.12-2.32-1.07-.61-2.12-1.28-3.1-2.04C16.68,.15,16.34,0,16,0c-.34,0-.68,.15-1.07,.45-.97,.76-2.02,1.43-3.1,2.04-2.51,1.42-5.13,2.49-8.12,2.32-.74-.04-1.13,.38-1.12,1.16,.01,2.15,0,4.31,0,6.46,0,0,0,0,0,0,0,1.92,0,3.83,0,5.75,0,1.85,.54,3.54,1.52,5.09,2.73,4.28,6.68,6.98,11.37,8.68,.15,.05,.32,.07,.5,.06,.18,0,.35,0,.5-.06,4.7-1.7,8.65-4.4,11.37-8.68,.98-1.55,1.52-3.24,1.52-5.09,0-1.92,0-3.83,0-5.75,0,0,0,0,0,0,0-2.15,0-4.31,0-6.46Zm-2,7.66h0v.97c0,1.08,0,2.16,0,3.24,0,1.56-.45,3.04-1.32,4.41-2.13,3.35-5.24,5.73-9.52,7.27-.14,.05-.3,.08-.49,.08-.03,0-.05,0-.08,0-.22,0-.41-.02-.57-.08-4.27-1.55-7.38-3.92-9.51-7.27-.87-1.37-1.31-2.85-1.32-4.41,0-1.08,0-2.16,0-3.24v-.99s0-.46,0-.46v-1.49c0-1.26,0-2.52,0-3.77,0-.58,.22-.92,.4-1.09,.18-.17,.5-.36,1.02-.33,2.48,.14,4.61-.84,6.36-1.83,.92-.52,1.75-1.06,2.47-1.62,.41-.32,.78-.47,1.16-.47,.01,0,.02,0,.03,0,.37,0,.74,.15,1.15,.47,.71,.56,1.54,1.1,2.47,1.62,1.75,.99,3.87,1.97,6.36,1.83,.52-.03,.84,.16,1.02,.33,.19,.18,.41,.51,.4,1.09,0,1.26,0,2.52,0,3.77v1.97Z"/><path class="b" d="M25.14,8.18c-2.5,.14-4.66-.87-6.26-1.78-.88-.49-1.67-1.01-2.35-1.55-.28-.22-.43-.24-.52-.24-.1,0-.25,.02-.53,.24-.68,.53-1.48,1.05-2.35,1.55-1.6,.9-3.76,1.92-6.26,1.78-.09,0-.21,0-.28,.06-.06,.06-.1,.19-.1,.36,0,1.15,0,2.29,0,3.44v.94s0,.41,0,.41v1.32c0,.98,0,1.96,0,2.95,0,1.25,.36,2.44,1.06,3.54,.49,.77,1.04,1.48,1.66,2.13l5.23-13.84c.22-.6,.79-.99,1.43-.99h.24c.64,0,1.21,.39,1.43,.99l5.24,13.85c.62-.65,1.17-1.36,1.66-2.13,.7-1.1,1.06-2.29,1.06-3.54,0-.98,0-1.96,0-2.95v-1.76s0,0,0,0v-.92c0-1.15,0-2.29,0-3.44h0c0-.17-.03-.3-.1-.36-.07-.06-.19-.07-.28-.06Z"/></svg>